<svg width="87" height="63" viewBox="0 0 87 63" fill="none" xmlns="http://www.w3.org/2000/svg">
<path fill-rule="evenodd" clip-rule="evenodd" d="M25.3281 3.39821L26.5017 0.762022C27.7786 0.015625 29.4057 -0.170974 31.383 0.202224C33.3604 0.575422 34.7004 1.32201 35.4031 2.44197L35.1238 6.7808L25.3281 3.39821Z" fill="#EBECF0"/>
<path fill-rule="evenodd" clip-rule="evenodd" d="M2.46387 36.9286L22.6652 3.93817C25.356 2.85361 27.9902 2.70939 30.5678 3.50552C33.1455 4.30164 34.9645 5.76667 36.025 7.90059V46.2816L2.46387 36.9286Z" fill="#DFE1E6"/>
<path d="M18.4252 62.2996C28.1454 62.2996 36.0252 54.4198 36.0252 44.6996C36.0252 34.9794 28.1454 27.0996 18.4252 27.0996C8.70498 27.0996 0.825195 34.9794 0.825195 44.6996C0.825195 54.4198 8.70498 62.2996 18.4252 62.2996Z" fill="white"/>
<path d="M18.425 57.5766C25.5363 57.5766 31.3012 51.8117 31.3012 44.7004C31.3012 37.5891 25.5363 31.8242 18.425 31.8242C11.3137 31.8242 5.54883 37.5891 5.54883 44.7004C5.54883 51.8117 11.3137 57.5766 18.425 57.5766Z" fill="#DFE1E6"/>
<path d="M18.2723 40.2047C20.0817 40.2047 21.5485 38.7379 21.5485 36.9285C21.5485 35.1191 20.0817 33.6523 18.2723 33.6523C16.4629 33.6523 14.9961 35.1191 14.9961 36.9285C14.9961 38.7379 16.4629 40.2047 18.2723 40.2047Z" fill="white"/>
<path fill-rule="evenodd" clip-rule="evenodd" d="M61.96 3.39821L60.7864 0.762022C59.5095 0.015625 57.8824 -0.170974 55.905 0.202224C53.9277 0.575422 52.5877 1.32201 51.885 2.44197L52.1642 6.7808L61.96 3.39821Z" fill="#EBECF0"/>
<path fill-rule="evenodd" clip-rule="evenodd" d="M84.8242 36.9286L64.6229 3.93817C61.9321 2.85361 59.2979 2.70939 56.7203 3.50552C54.1426 4.30164 52.3236 5.76667 51.2631 7.90059V46.2816L84.8242 36.9286Z" fill="#DFE1E6"/>
<path d="M68.8629 62.2996C59.1427 62.2996 51.2629 54.4198 51.2629 44.6996C51.2629 34.9794 59.1427 27.0996 68.8629 27.0996C78.5831 27.0996 86.4629 34.9794 86.4629 44.6996C86.4629 54.4198 78.5831 62.2996 68.8629 62.2996Z" fill="white"/>
<path d="M68.8631 57.5766C61.7517 57.5766 55.9869 51.8117 55.9869 44.7004C55.9869 37.5891 61.7517 31.8242 68.8631 31.8242C75.9744 31.8242 81.7393 37.5891 81.7393 44.7004C81.7393 51.8117 75.9744 57.5766 68.8631 57.5766Z" fill="#DFE1E6"/>
<path d="M69.0158 40.2047C67.2064 40.2047 65.7396 38.7379 65.7396 36.9285C65.7396 35.1191 67.2064 33.6523 69.0158 33.6523C70.8252 33.6523 72.292 35.1191 72.292 36.9285C72.292 38.7379 70.8252 40.2047 69.0158 40.2047Z" fill="white"/>
<path d="M51.2635 17.5H36.0254V28.0143H51.2635V17.5Z" fill="#DFE1E6"/>
<path d="M51.2635 28.0156H36.0254V35.0251H51.2635V28.0156Z" fill="#EBECF0"/>
</svg>
